# xmcd CD database file
# Copyright (C) 1993-1997  Ti Kan
#
# Track frame offsets:
#	200
#	22422
#	38262
#	56257
#	71465
#	84430
#	96262
#	109135
#	119485
#	132280
#	147745
#	197890
#	212015
#	225297
#	240067
#
# Disc length: 4405 seconds
#
# Revision: 1
# Processed by: cddbd v1.4b41PL1 Copyright (c) Steve Scherf et al.
# Submitted via: xmcd 2.1 PL2
#
DISCID=c911330f
DTITLE=Canned Heat - On The Road Again
DYEAR=1900
DGENRE=
TTITLE0=On the road again
TTITLE1=Amphetamine Annie
TTITLE2=My crime
TTITLE3=Time was
TTITLE4=Goin' up the country
TTITLE5=Sugar bee
TTITLE6=Whiskey headed woman
TTITLE7=Bullfrog blues
TTITLE8=Let's work together
TTITLE9=World in a jug
TTITLE10=Fried hockey boogie
TTITLE11=Rollin `n' tumblin'
TTITLE12=I'm her man
TTITLE13=Dust my broom
TTITLE14=Parthenogenesis
EXTD=
EXTT0=
EXTT1=
EXTT2=
EXTT3=
EXTT4=
EXTT5=
EXTT6=
EXTT7=
EXTT8=
EXTT9=
EXTT10=
EXTT11=
EXTT12=
EXTT13=
EXTT14=
PLAYORDER=
